<svg width="420" height="80" viewBox="0 0 420 80" fill="none" xmlns="http://www.w3.org/2000/svg">
<path d="M106.248 17.328H122.504C125.405 17.328 128.029 17.7973 130.376 18.736C132.765 19.6747 134.792 21.0827 136.456 22.96C138.163 24.7947 139.464 27.12 140.36 29.936C141.299 32.7093 141.768 35.952 141.768 39.664C141.768 43.376 141.299 46.64 140.36 49.456C139.464 52.2293 138.163 54.5547 136.456 56.432C134.792 58.2667 132.765 59.6533 130.376 60.592C128.029 61.5307 125.405 62 122.504 62H106.248V17.328ZM122.504 54.512C125.661 54.512 128.157 53.5947 129.992 51.76C131.869 49.8827 132.808 47.024 132.808 43.184V36.144C132.808 32.304 131.869 29.4667 129.992 27.632C128.157 25.7547 125.661 24.816 122.504 24.816H114.696V54.512H122.504Z" fill="#009FFF"/>
<path d="M174.437 62C172.645 62 171.216 61.488 170.149 60.464C169.125 59.3973 168.485 57.9893 168.229 56.24H167.845C167.29 58.416 166.16 60.0587 164.453 61.168C162.746 62.2347 160.634 62.768 158.117 62.768C154.704 62.768 152.08 61.872 150.245 60.08C148.41 58.288 147.493 55.8987 147.493 52.912C147.493 49.456 148.73 46.896 151.205 45.232C153.68 43.5253 157.2 42.672 161.765 42.672H167.461V40.24C167.461 38.3627 166.97 36.912 165.989 35.888C165.008 34.864 163.429 34.352 161.253 34.352C159.333 34.352 157.776 34.7787 156.581 35.632C155.429 36.4427 154.448 37.424 153.637 38.576L148.773 34.224C150.01 32.304 151.653 30.768 153.701 29.616C155.749 28.4213 158.458 27.824 161.829 27.824C166.352 27.824 169.786 28.848 172.133 30.896C174.48 32.944 175.653 35.888 175.653 39.728V55.472H178.981V62H174.437ZM160.869 56.816C162.704 56.816 164.261 56.4107 165.541 55.6C166.821 54.7893 167.461 53.5947 167.461 52.016V47.6H162.213C157.946 47.6 155.813 48.9653 155.813 51.696V52.784C155.813 54.1493 156.24 55.1733 157.093 55.856C157.989 56.496 159.248 56.816 160.869 56.816Z" fill="#009FFF"/>
<path d="M189.707 23.728C188 23.728 186.763 23.344 185.995 22.576C185.27 21.808 184.907 20.8267 184.907 19.632V18.352C184.907 17.1573 185.27 16.176 185.995 15.408C186.763 14.64 188 14.256 189.707 14.256C191.371 14.256 192.587 14.64 193.355 15.408C194.123 16.176 194.507 17.1573 194.507 18.352V19.632C194.507 20.8267 194.123 21.808 193.355 22.576C192.587 23.344 191.371 23.728 189.707 23.728ZM185.611 28.592H193.803V62H185.611V28.592Z" fill="#009FFF"/>
<path d="M211.49 62C208.674 62 206.605 61.296 205.283 59.888C203.96 58.48 203.298 56.496 203.298 53.936V14.64H211.49V55.472H215.906V62H211.49Z" fill="#009FFF"/>
<path d="M242.154 28.592H249.833L236.393 67.952C235.967 69.1467 235.476 70.1707 234.922 71.024C234.41 71.92 233.791 72.6453 233.066 73.2C232.34 73.7547 231.465 74.16 230.441 74.416C229.417 74.672 228.223 74.8 226.857 74.8H221.93V68.272H227.945L229.482 63.6L217.514 28.592H225.641L231.465 46.256L233.641 54.704H234.025L236.329 46.256L242.154 28.592Z" fill="#009FFF"/>
<path d="M252.612 29.232H256.196L264.068 58.736H264.196L272.9 29.232H276.292L285.06 58.736H285.188L292.996 29.232H296.516L287.3 62H282.82L274.564 34.416H274.436L266.244 62H261.828L252.612 29.232Z" fill="#009FFF"/>
<path d="M316.038 62.768C313.862 62.768 311.899 62.384 310.15 61.616C308.4 60.848 306.907 59.7387 305.669 58.288C304.432 56.7947 303.472 54.9813 302.789 52.848C302.107 50.7147 301.766 48.304 301.766 45.616C301.766 42.928 302.107 40.5387 302.789 38.448C303.472 36.3147 304.432 34.5227 305.669 33.072C306.907 31.5787 308.4 30.448 310.15 29.68C311.899 28.8693 313.862 28.464 316.038 28.464C318.214 28.464 320.176 28.8693 321.926 29.68C323.675 30.448 325.168 31.5787 326.405 33.072C327.643 34.5227 328.603 36.3147 329.285 38.448C329.968 40.5387 330.31 42.928 330.31 45.616C330.31 48.304 329.968 50.7147 329.285 52.848C328.603 54.9813 327.643 56.7947 326.405 58.288C325.168 59.7387 323.675 60.848 321.926 61.616C320.176 62.384 318.214 62.768 316.038 62.768ZM316.038 59.504C319.238 59.504 321.755 58.5013 323.59 56.496C325.467 54.4907 326.405 51.5467 326.405 47.664V43.568C326.405 39.728 325.467 36.8053 323.59 34.8C321.755 32.752 319.238 31.728 316.038 31.728C312.838 31.728 310.299 32.7307 308.422 34.736C306.587 36.7413 305.669 39.6853 305.669 43.568V47.664C305.669 51.504 306.587 54.448 308.422 56.496C310.299 58.5013 312.838 59.504 316.038 59.504Z" fill="#009FFF"/>
<path d="M339.577 62V29.232H343.225V35.12H343.481C344.121 33.584 345.209 32.2187 346.745 31.024C348.281 29.8293 350.457 29.232 353.273 29.232H355.449V32.816H352.569C349.838 32.816 347.598 33.4133 345.849 34.608C344.1 35.8027 343.225 37.4667 343.225 39.6V62H339.577Z" fill="#009FFF"/>
<path d="M383.386 56.752H383.194C382.341 58.5867 381.082 60.0587 379.418 61.168C377.797 62.2347 375.727 62.768 373.21 62.768C368.986 62.768 365.679 61.2747 363.29 58.288C360.901 55.3013 359.706 51.0773 359.706 45.616C359.706 40.1547 360.901 35.9307 363.29 32.944C365.679 29.9573 368.986 28.464 373.21 28.464C375.727 28.464 377.818 29.0187 379.482 30.128C381.146 31.1947 382.383 32.6453 383.194 34.48H383.386V14.64H387.034V62H383.386V56.752ZM374.042 59.504C375.322 59.504 376.517 59.3333 377.626 58.992C378.778 58.6507 379.781 58.16 380.634 57.52C381.487 56.8373 382.149 56.048 382.618 55.152C383.13 54.2133 383.386 53.168 383.386 52.016V39.024C383.386 37.9573 383.13 36.976 382.618 36.08C382.149 35.184 381.487 34.416 380.634 33.776C379.781 33.136 378.778 32.6453 377.626 32.304C376.517 31.92 375.322 31.728 374.042 31.728C370.757 31.728 368.197 32.7733 366.362 34.864C364.527 36.9547 363.61 39.7707 363.61 43.312V47.92C363.61 51.4613 364.527 54.2773 366.362 56.368C368.197 58.4587 370.757 59.504 374.042 59.504Z" fill="#009FFF"/>
<path d="M408.232 62.768C405.373 62.768 402.92 62.2347 400.872 61.168C398.867 60.1013 397.117 58.544 395.624 56.496L398.312 54.384C399.677 56.176 401.171 57.4987 402.792 58.352C404.413 59.2053 406.312 59.632 408.488 59.632C411.005 59.632 412.947 59.0987 414.312 58.032C415.677 56.9653 416.36 55.4293 416.36 53.424C416.36 51.6747 415.827 50.3093 414.76 49.328C413.736 48.304 412.029 47.6213 409.64 47.28L406.952 46.832C405.459 46.6187 404.093 46.2987 402.856 45.872C401.619 45.4453 400.552 44.8693 399.656 44.144C398.803 43.4187 398.12 42.544 397.608 41.52C397.139 40.4533 396.904 39.1733 396.904 37.68C396.904 36.144 397.181 34.8 397.736 33.648C398.333 32.496 399.123 31.536 400.104 30.768C401.085 30 402.259 29.424 403.624 29.04C404.989 28.656 406.461 28.464 408.04 28.464C410.771 28.464 413.011 28.9333 414.76 29.872C416.509 30.8107 418.003 32.0267 419.24 33.52L416.808 35.76C415.955 34.736 414.803 33.7973 413.352 32.944C411.944 32.048 410.109 31.6 407.848 31.6C405.501 31.6 403.667 32.112 402.344 33.136C401.064 34.16 400.424 35.6107 400.424 37.488C400.424 39.408 401 40.7947 402.152 41.648C403.347 42.5013 405.117 43.12 407.464 43.504L410.088 43.888C413.416 44.4 415.869 45.4027 417.448 46.896C419.069 48.3467 419.88 50.3947 419.88 53.04C419.88 56.112 418.835 58.5013 416.744 60.208C414.696 61.9147 411.859 62.768 408.232 62.768Z" fill="#009FFF"/>
<path d="M0 32C0 20.7989 0 15.1984 2.17987 10.9202C4.09734 7.15695 7.15695 4.09734 10.9202 2.17987C15.1984 0 20.7989 0 32 0H48C59.201 0 64.8016 0 69.0798 2.17987C72.8431 4.09734 75.9027 7.15695 77.8201 10.9202C80 15.1984 80 20.7989 80 32V48C80 59.201 80 64.8016 77.8201 69.0798C75.9027 72.8431 72.8431 75.9027 69.0798 77.8201C64.8016 80 59.2011 80 48 80H32C20.7989 80 15.1984 80 10.9202 77.8201C7.15695 75.9027 4.09734 72.8431 2.17987 69.0798C0 64.8016 0 59.2011 0 48V32Z" fill="#009FFF"/>
<path d="M20.3725 55.139C18.8786 55.139 17.7672 54.7665 17.0385 54.0215C16.3462 53.2393 16 52.2522 16 51.0602V50.0544C16 48.8625 16.3462 47.8754 17.0385 47.0931C17.7672 46.3109 18.8786 45.9198 20.3725 45.9198C21.9029 45.9198 23.0142 46.3109 23.7066 47.0931C24.3989 47.8754 24.745 48.8625 24.745 50.0544V51.0602C24.745 52.2522 24.3989 53.2393 23.7066 54.0215C23.0142 54.7665 21.9029 55.139 20.3725 55.139ZM20.3725 33.9627C18.8786 33.9627 17.7672 33.5903 17.0385 32.8453C16.3462 32.063 16 31.0759 16 29.884V28.8782C16 27.6862 16.3462 26.6991 17.0385 25.9169C17.7672 25.1347 18.8786 24.7436 20.3725 24.7436C21.9029 24.7436 23.0142 25.1347 23.7066 25.9169C24.3989 26.6991 24.745 27.6862 24.745 28.8782V29.884C24.745 31.0759 24.3989 32.063 23.7066 32.8453C23.0142 33.5903 21.9029 33.9627 20.3725 33.9627Z" fill="white"/>
<path d="M33.6657 21H47.5484C50.0262 21 52.2671 21.4097 54.2711 22.2292C56.3117 23.0487 58.0424 24.2779 59.4635 25.9169C60.921 27.5186 62.0324 29.5487 62.7976 32.0072C63.5992 34.4284 64 37.2593 64 40.5C64 43.7407 63.5992 46.5903 62.7976 49.0487C62.0324 51.4699 60.921 53.5 59.4635 55.139C58.0424 56.7407 56.3117 57.9513 54.2711 58.7708C52.2671 59.5903 50.0262 60 47.5484 60H33.6657V21ZM47.5484 53.4628C50.2448 53.4628 52.3764 52.6619 53.9432 51.0602C55.5465 49.4212 56.3481 46.9255 56.3481 43.5731V37.4269C56.3481 34.0745 55.5465 31.5974 53.9432 29.9957C52.3764 28.3567 50.2448 27.5372 47.5484 27.5372H40.8803V53.4628H47.5484Z" fill="white"/>
</svg>
