<svg width="100" height="100" viewBox="0 0 100 100" fill="none" xmlns="http://www.w3.org/2000/svg">
<path d="M0 50C0 22.3858 22.3858 0 50 0C77.6142 0 100 22.3858 100 50C100 77.6142 77.6142 100 50 100C22.3858 100 0 77.6142 0 50Z" fill="#009FFF"/>
<path d="M49.9691 22.7704C49.1729 22.7704 48.3767 22.9488 47.76 23.3056L28.0692 34.6957C26.8355 35.4094 26.8355 36.5378 28.0692 37.2514L47.76 48.6416C48.9936 49.3552 50.9444 49.3552 52.1779 48.6416L71.8687 37.2514C73.1023 36.5379 73.1023 35.4094 71.8687 34.6959L52.1779 23.3057C51.5611 22.9486 50.7651 22.7704 49.9691 22.7704ZM49.8628 29.6166C51.0247 29.6291 52.0693 29.8953 52.9966 30.4148C53.6308 30.7703 54.0462 31.1757 54.2426 31.6314C54.4324 32.0834 54.4437 32.6794 54.2761 33.4187L54.0698 34.1542C53.9332 34.6805 53.9048 35.0591 53.9847 35.2899C54.0582 35.5173 54.2404 35.7124 54.5316 35.8756L54.9686 36.1203L50.6844 38.5205L50.2083 38.2541C49.6775 37.9568 49.339 37.6209 49.1921 37.246C49.039 36.8677 49.0645 36.2659 49.2687 35.4407L49.4652 34.6997C49.5795 34.2585 49.5906 33.8966 49.4987 33.6146C49.4145 33.3279 49.2236 33.1012 48.9258 32.9344C48.4727 32.6804 47.9299 32.5894 47.2977 32.6607C46.6589 32.7285 45.9994 32.953 45.319 33.3342C44.6781 33.6932 44.0961 34.1427 43.5723 34.6826C43.0423 35.2191 42.5875 35.8329 42.2076 36.5244L39.159 34.8161C39.8445 34.1278 40.518 33.5258 41.1797 33.0098C41.8415 32.4941 42.5402 32.0301 43.276 31.6176C45.2065 30.5361 47.0018 29.8928 48.6617 29.6882C49.0752 29.6362 49.4755 29.6123 49.8628 29.6166ZM56.4057 36.9256L59.8624 38.8622L55.5782 41.2625L52.1214 39.3259L56.4057 36.9256ZM26.7543 39.4091C26.0127 39.3891 25.5086 39.968 25.5086 40.992V61.32C25.5086 62.7447 26.4844 64.4348 27.718 65.1473L46.6582 76.0847C47.8919 76.797 48.8677 76.2337 48.8677 74.8092V54.4808C48.8677 53.0561 47.8919 51.3664 46.6582 50.6538L27.718 39.7165C27.3713 39.5161 27.0445 39.4168 26.7543 39.4091ZM73.2602 39.4093C72.9702 39.4171 72.6437 39.5163 72.2968 39.7168L53.3559 50.6541C52.1223 51.3665 51.1465 53.0566 51.1465 54.4813V74.8098C51.1465 76.2342 52.1223 76.7973 53.3559 76.0847L72.2969 65.1478C73.5305 64.4353 74.506 62.7455 74.506 61.3208V40.9923C74.506 39.9685 74.002 39.3895 73.2602 39.4093ZM31.8111 47.6273C32.6558 47.8034 33.4273 48.019 34.1255 48.2736C34.8235 48.5283 35.4974 48.8429 36.1467 49.2178C37.8499 50.2013 39.1484 51.3221 40.042 52.5799C40.9356 53.8303 41.3824 55.164 41.3824 56.5812C41.3824 57.3082 41.2464 57.8824 40.974 58.3039C40.7017 58.7179 40.2374 59.0657 39.5813 59.3472L38.911 59.5947C38.4363 59.7806 38.1255 59.9722 37.979 60.1697C37.8324 60.3594 37.7592 60.6211 37.7592 60.955V61.4558L33.979 59.273V58.7277C33.979 58.1193 34.094 57.648 34.3245 57.3136C34.5548 56.9718 35.0402 56.651 35.7801 56.3511L36.4504 56.0925C36.8483 55.9365 37.138 55.7403 37.3195 55.5038C37.5077 55.2714 37.6021 54.9845 37.6021 54.6432C37.6021 54.1241 37.4345 53.6229 37.0993 53.1401C36.7642 52.6498 36.2966 52.2314 35.6962 51.8846C35.1307 51.5582 34.5198 51.3316 33.8635 51.205C33.2074 51.0709 32.5231 51.0434 31.8111 51.1219V47.6273ZM66.5565 48.7368C66.7527 48.7368 66.9344 48.7581 67.102 48.8004C67.9956 49.019 68.4424 49.8368 68.4424 51.254C68.4424 51.981 68.3062 52.7124 68.034 53.4484C67.7617 54.1767 67.2974 55.0606 66.6413 56.0997L65.971 57.1212C65.4963 57.8553 65.1855 58.4055 65.039 58.7721C64.8924 59.1311 64.8192 59.4776 64.8192 59.8114V60.3122L61.039 62.4949V61.9496C61.039 61.3412 61.1543 60.7366 61.3845 60.1363C61.6152 59.5285 62.1002 58.6474 62.8401 57.4932L63.5104 56.4606C63.9083 55.845 64.198 55.3142 64.3795 54.8681C64.5677 54.418 64.6621 54.0223 64.6621 53.6809C64.6621 53.1617 64.4945 52.8541 64.1596 52.7582C63.8244 52.6551 63.3565 52.7765 62.7562 53.123C62.1907 53.4495 61.58 53.9287 60.9238 54.5597C60.2676 55.1836 59.5834 55.9457 58.8713 56.8465V53.3518C59.7161 52.5526 60.4873 51.8771 61.1852 51.3257C61.8835 50.7742 62.5574 50.3112 63.2064 49.9364C64.5906 49.1372 65.707 48.7375 66.5565 48.7368ZM33.9789 60.9204L37.7592 63.1028V67.0649L33.979 64.8825L33.9789 60.9204ZM64.8192 61.9594V65.9213L61.039 68.1037V64.142L64.8192 61.9594Z" fill="white"/>
</svg>
