<svg width="50" height="50" viewBox="0 0 50 50" fill="none" xmlns="http://www.w3.org/2000/svg">
<path d="M0 25C0 11.1929 11.1929 0 25 0C38.8071 0 50 11.1929 50 25C50 38.8071 38.8071 50 25 50C11.1929 50 0 38.8071 0 25Z" fill="#009FFF"/>
<path d="M23.5506 14.5C24.7678 14.5 25.9031 15.3768 26.3129 16.7821C26.4634 17.3696 26.5246 17.9583 26.5833 18.5257L26.6383 19.0417C26.8488 20.7639 26.8488 29.2248 26.6383 30.9596L26.5833 31.4944C26.5307 32.0342 26.4768 32.5929 26.3215 33.1891C25.9117 34.5907 24.8192 35.5 23.5787 35.5C23.5396 35.5 23.5004 35.5 23.4564 35.4987C22.7713 35.4987 22.0263 35.0779 21.6042 34.7109L17.49 31.2802H15.3773C13.7465 31.2802 12.5525 30.0991 12.336 28.2716C12.0864 26.4442 12.1354 23.3091 12.336 21.6482C12.5721 19.9185 13.8224 18.7198 15.3773 18.7198H17.49L21.5259 15.3392C22.0128 14.9159 22.8716 14.4975 23.5506 14.5ZM33.5051 14.7579C33.992 14.4122 34.6612 14.5387 34.9951 15.0335C36.8253 17.7277 37.8333 21.2686 37.8333 24.9999C37.8333 28.7337 36.8253 32.2733 34.9951 34.9675C34.7957 35.2619 34.4666 35.4385 34.1155 35.4385C33.8978 35.4385 33.6874 35.3709 33.5063 35.2431C33.0218 34.8962 32.902 34.2135 33.2372 33.7175C34.8202 31.3853 35.6924 28.289 35.6924 24.9999C35.6924 21.712 34.8202 18.6157 33.2372 16.2835C32.902 15.7888 33.0218 15.1049 33.5051 14.7579ZM29.8164 18.3015C30.3045 17.957 30.9712 18.081 31.3077 18.577C32.4894 20.318 33.1415 22.5989 33.1415 25C33.1415 27.4011 32.4894 29.682 31.3077 31.423C31.107 31.7173 30.7792 31.894 30.4281 31.894C30.2103 31.894 29.9987 31.8263 29.8176 31.6986C29.3332 31.3516 29.2133 30.6677 29.5497 30.173C30.4856 28.7939 31.0006 26.9565 31.0006 25C31.0006 23.0423 30.4856 21.2061 29.5497 19.827C29.2133 19.3323 29.3332 18.6484 29.8164 18.3015Z" fill="white"/>
</svg>
