<svg width="80" height="80" viewBox="0 0 80 80" fill="none" xmlns="http://www.w3.org/2000/svg">
<path d="M0 32C0 20.7989 0 15.1984 2.17987 10.9202C4.09734 7.15695 7.15695 4.09734 10.9202 2.17987C15.1984 0 20.7989 0 32 0H48C59.201 0 64.8016 0 69.0798 2.17987C72.8431 4.09734 75.9027 7.15695 77.8201 10.9202C80 15.1984 80 20.7989 80 32V48C80 59.201 80 64.8016 77.8201 69.0798C75.9027 72.8431 72.8431 75.9027 69.0798 77.8201C64.8016 80 59.2011 80 48 80H32C20.7989 80 15.1984 80 10.9202 77.8201C7.15695 75.9027 4.09734 72.8431 2.17987 69.0798C0 64.8016 0 59.2011 0 48V32Z" fill="#009FFF"/>
<path d="M20.3725 55.139C18.8786 55.139 17.7672 54.7665 17.0385 54.0215C16.3462 53.2393 16 52.2522 16 51.0602V50.0544C16 48.8625 16.3462 47.8754 17.0385 47.0931C17.7672 46.3109 18.8786 45.9198 20.3725 45.9198C21.9029 45.9198 23.0142 46.3109 23.7066 47.0931C24.3989 47.8754 24.745 48.8625 24.745 50.0544V51.0602C24.745 52.2522 24.3989 53.2393 23.7066 54.0215C23.0142 54.7665 21.9029 55.139 20.3725 55.139ZM20.3725 33.9627C18.8786 33.9627 17.7672 33.5903 17.0385 32.8453C16.3462 32.063 16 31.0759 16 29.884V28.8782C16 27.6862 16.3462 26.6991 17.0385 25.9169C17.7672 25.1347 18.8786 24.7436 20.3725 24.7436C21.9029 24.7436 23.0142 25.1347 23.7066 25.9169C24.3989 26.6991 24.745 27.6862 24.745 28.8782V29.884C24.745 31.0759 24.3989 32.063 23.7066 32.8453C23.0142 33.5903 21.9029 33.9627 20.3725 33.9627Z" fill="white"/>
<path d="M33.6657 21H47.5484C50.0262 21 52.2671 21.4097 54.2711 22.2292C56.3117 23.0487 58.0424 24.2779 59.4635 25.9169C60.921 27.5186 62.0324 29.5487 62.7976 32.0072C63.5992 34.4284 64 37.2593 64 40.5C64 43.7407 63.5992 46.5903 62.7976 49.0487C62.0324 51.4699 60.921 53.5 59.4635 55.139C58.0424 56.7407 56.3117 57.9513 54.2711 58.7708C52.2671 59.5903 50.0262 60 47.5484 60H33.6657V21ZM47.5484 53.4628C50.2448 53.4628 52.3764 52.6619 53.9432 51.0602C55.5465 49.4212 56.3481 46.9255 56.3481 43.5731V37.4269C56.3481 34.0745 55.5465 31.5974 53.9432 29.9957C52.3764 28.3567 50.2448 27.5372 47.5484 27.5372H40.8803V53.4628H47.5484Z" fill="white"/>
</svg>
